<svg xmlns="http://www.w3.org/2000/svg" fill="none" viewBox="0 0 1024 1024"><circle cx="511.999" cy="512.885" r="437.626" fill="#DC2626"/><path fill="#fff" fill-rule="evenodd" d="M578.552 588.616v14.54c0 5.86 2.826 8.686 8.482 8.482h49.073v-42.712h-35.138c-20.197.203-29.488-8.278-27.869-25.445V418.677c-1.619-17.366 7.672-25.948 27.869-25.749h53.313l1.515-5.149c3.228-11.71 8.983-17.57 17.267-17.57 9.49 0 14.237 3.233 14.237 9.694 0 1.817-.81 4.241-2.423 7.27l-2.727 5.755h85.424c20.395-.199 29.686 8.383 27.869 25.749v46.044c1.614 17.167-7.474 25.748-27.263 25.748H598.848v19.084h205.684c8.278 0 12.42 3.437 12.42 10.3 0 6.664-4.142 9.996-12.42 9.996H598.848v10.602c-.204 5.656 2.622 8.382 8.482 8.179h187.205c18.98 0 28.475 8.179 28.475 24.537 0 35.139-4.345 57.654-13.025 67.551-8.686 9.893-24.438 14.843-47.257 14.843-12.117 0-18.175-4.648-18.175-13.934 0-9.494 6.461-14.237 19.387-14.237 12.921 0 21.508-2.471 25.748-7.422 4.241-4.946 6.362-18.123 6.362-39.531 0-7.673-3.74-11.511-11.208-11.511H660.341v42.712h52.406c5.854.204 8.68-2.622 8.481-8.482v-14.54c0-7.673 4.137-11.511 12.42-11.511 8.278 0 12.42 3.838 12.42 11.511v20.295c1.41 17.371-6.968 25.749-25.143 25.143H579.158c-17.976.402-26.255-7.975-24.84-25.143v-20.295c0-7.876 4.038-11.814 12.117-11.814 8.075 0 12.117 3.938 12.117 11.814Zm20.296-118.14h162.366c5.854.204 8.68-2.622 8.482-8.481v-10.603H598.848v19.084Zm0-48.77v9.996h170.848v-9.996c.198-5.855-2.628-8.681-8.482-8.482H607.33c-5.86-.199-8.686 2.627-8.482 8.482Zm-205.805-51.497c7.672 0 11.511 4.345 11.511 13.026v49.679h32.11c6.257-.199 9.49-3.432 9.693-9.694v-24.839c0-9.694 4.037-14.54 12.117-14.54 7.876 0 11.814 4.846 11.814 14.54v31.807c1.008 17.37-7.27 25.549-24.84 24.536H341.546c-17.371 1.013-25.549-7.166-24.536-24.536v-32.11c0-9.49 3.833-14.237 11.51-14.237 7.673 0 11.511 4.747 11.511 14.237v25.142c.199 6.262 3.432 9.495 9.694 9.694h31.807v-49.679c0-8.681 3.834-13.026 11.511-13.026Zm-183.268 220.83 47.559-8.785.909-5.755 1.211-6.058 13.632-90.877c1.614-14.133 5.855-21.205 12.723-21.205 8.074 0 12.117 3.233 12.117 9.694l-.909 5.452-1.515 9.391-9.693 53.617-8.785 41.501 3.635-.606 16.358-3.03c6.46 0 9.693 4.042 9.693 12.117 0 4.847-3.233 8.179-9.693 9.997l-76.034 18.478-7.573 1.212c-8.283 0-12.42-4.341-12.42-13.026 0-5.855 2.925-9.892 8.785-12.117Zm15.146-126.016c5.046 0 8.378 3.385 9.996 10.148 1.615 6.769 3.636 19.842 6.059 39.229l3.332 30.595.606 9.088c0 7.071-3.938 10.602-11.814 10.602-5.656 0-8.988-2.523-9.996-7.573l-8.482-74.822-.909-8.179c0-6.058 3.735-9.088 11.208-9.088Zm83.909-27.565c0 7.677-4.24 11.511-12.722 11.511h-81.789c-8.283 0-12.42-3.938-12.42-11.814 0-7.673 4.137-11.511 12.42-11.511h30.595v-39.683c0-9.087 4.137-13.632 12.42-13.632 8.074 0 12.117 4.545 12.117 13.632v39.683h26.657c8.482 0 12.722 3.938 12.722 11.814Zm-3.635 50.891c0-7.673 4.644-11.511 13.935-11.511h153.278c9.287 0 13.935 3.838 13.935 11.511 0 7.473-4.648 11.208-13.935 11.208h-77.851c-3.029 8.079-7.573 17.569-13.631 28.474h70.278c16.76 0 25.142 8.482 25.142 25.446v73.913c.606 17.366-7.776 26.151-25.142 26.354h-9.391c-8.079 0-12.117-4.042-12.117-12.117 0-8.079 3.938-12.117 11.814-12.117h4.544c4.847-.198 7.37-2.726 7.573-7.573v-62.099c-.203-6.257-3.436-9.39-9.694-9.39h-19.386v83.303c0 8.278-3.436 12.42-10.3 12.42-6.867 0-10.299-4.142-10.299-12.42v-83.303h-24.84v83.606c0 8.278-3.436 12.42-10.299 12.42-6.868 0-10.299-4.142-10.299-12.42v-83.606h-14.54c-6.059.203-9.192 3.332-9.391 9.39v82.395c0 8.278-3.635 12.42-10.905 12.42-7.271 0-10.905-4.142-10.905-12.42v-89.362c0-16.556 8.178-24.84 24.536-24.84h20.599l10.602-26.354.606-2.12H319.13c-9.291 0-13.935-3.735-13.935-11.208Z" clip-rule="evenodd"/></svg>