<svg xmlns="http://www.w3.org/2000/svg" fill="none" viewBox="0 0 1025 823"><path fill="#000" fill-rule="evenodd" d="M1014.04 194.431c-5.79 0-9.51-3.384-11.15-10.16l-10.165-43.612h-50.054l-10.408 43.612c-1.653 6.776-5.371 10.16-11.151 10.16-7.105 0-10.655-3.136-10.655-9.417l.495-3.716 41.134-166.769C954.398 4.951 959.602.157 967.698.157c8.092 0 13.381 5.123 15.859 15.364l40.643 165.777.49 3.716c0 6.281-3.55 9.417-10.65 9.417ZM967.698 35.097l-20.32 85.242h40.392l-20.072-85.242ZM805.539 495.456h-24.036c-5.948 0-10.822-2.23-14.621-6.691-3.306-3.632-4.955-8.011-4.955-13.133V327.944c0-5.451 1.939-10.117 5.823-14 3.879-3.88 8.382-5.824 13.505-5.824h17.841c47.411 0 71.118 31.142 71.118 93.42 0 61.291-21.558 92.595-64.675 93.916Zm-3.469-165.529h-8.178c-5.617.166-8.51 3.469-8.672 9.912v123.899c.162 6.442 3.136 9.749 8.92 9.912h6.939c30.065 0 45.099-24.285 45.099-72.853 0-46.586-14.705-70.208-44.108-70.87Zm57.241-135.496c-6.609 0-9.912-3.965-9.912-11.895v-151.9l-24.284 153.635c-1.158 6.776-4.46 10.16-9.912 10.16-5.452 0-8.673-3.303-9.664-9.912L781.007 30.637v151.899c0 7.93-3.307 11.895-9.912 11.895-6.609 0-9.912-3.965-9.912-11.895V21.22c0-14.04 5.781-21.063 17.346-21.063 8.921 0 14.287 5.7 16.107 17.099l20.567 125.633L835.77 17.255C837.586 5.857 843.038.157 852.125.157c11.399 0 17.098 7.024 17.098 21.063v161.316c0 7.93-3.307 11.895-9.912 11.895ZM702.108 498.925c-6.443 0-11.398-4.212-14.868-12.638l-55.011-135.05v134.059c0 9.087-3.802 13.629-11.399 13.629-7.434 0-11.151-4.542-11.151-13.629V321.997c0-11.561 4.624-17.345 13.877-17.345 6.11 0 10.903 4.131 14.373 12.389l55.754 136.289V318.528c0-9.25 3.717-13.876 11.151-13.876 7.596 0 11.399 4.626 11.399 13.876v162.803c0 11.732-4.709 17.594-14.125 17.594Zm-39.4-304.494c-8.096 0-12.142-4.956-12.142-14.868V15.025c0-9.912 4.128-14.868 12.39-14.868 8.092 0 12.142 4.956 12.142 14.868v164.538c0 9.912-4.131 14.868-12.39 14.868ZM557.295 498.925c-5.785 0-9.501-3.384-11.151-10.16l-10.16-43.612h-50.055l-10.407 43.612c-1.653 6.776-5.371 10.16-11.151 10.16-7.105 0-10.655-3.136-10.655-9.417l.495-3.716 41.135-166.768c2.311-9.579 7.515-14.372 15.611-14.372 8.092 0 13.381 5.122 15.859 15.363l40.639 165.777.495 3.716c0 6.281-3.554 9.417-10.655 9.417Zm-46.338-159.334-20.32 85.242h40.392l-20.072-85.242Zm41.382-144.913c-7.767 0-11.646-4.707-11.646-14.124v-74.587h-59.968v74.587c0 9.417-3.883 14.124-11.646 14.124-7.767 0-11.646-4.707-11.646-14.124V14.529c0-9.578 3.879-14.372 11.646-14.372 7.763 0 11.646 4.794 11.646 14.372v69.632h59.968V14.529c0-9.578 3.879-14.372 11.646-14.372 7.763 0 11.647 4.794 11.647 14.372v166.025c0 9.417-3.884 14.124-11.647 14.124Zm-150.76 300.778h-76.57c-5.618 0-10.326-1.898-14.124-5.7-3.802-3.798-5.699-8.34-5.699-13.628V319.271c0-9.745 4.046-14.619 12.142-14.619 8.092 0 12.142 4.874 12.142 14.619v146.697c.162 4.626 2.559 7.023 7.186 7.186h64.923c9.083 0 13.629 3.717 13.629 11.151 0 7.434-4.546 11.151-13.629 11.151ZM348.055 73.753l28.992 13.63c24.284 11.398 36.426 28.992 36.426 52.78 0 16.688-4.793 29.903-14.372 39.648-9.583 9.749-22.635 14.62-39.152 14.62-23.13 0-39.485-9.002-49.064-27.01-4.956-9.25-7.434-17.594-7.434-25.028 0-8.425 4.127-12.637 12.39-12.637 7.434 0 11.975 4.956 13.629 14.868 3.136 18.999 13.462 28.496 30.974 28.496 8.426 0 15.364-2.973 20.815-8.921 5.452-5.947 8.178-13.628 8.178-23.045 0-14.867-8.673-26.348-26.019-34.444l-25.771-12.142c-21.477-10.074-32.214-25.438-32.214-46.09 0-15.197 4.957-27.049 14.868-35.56 9.912-8.506 21.888-12.76 35.931-12.76 16.355 0 29.321 4.793 38.904 14.371 9.579 9.583 14.373 19.743 14.373 30.48 0 7.93-3.965 11.894-11.895 11.894-6.775 0-11.484-4.623-14.124-13.877-3.965-14.372-13.134-21.558-27.506-21.558-18.174 0-27.258 8.758-27.258 26.266 0 11.237 6.443 19.91 19.329 26.02Zm-38.508 694.479v11.894c0 4.793 2.311 7.105 6.938 6.938h40.143v-34.939h-28.744c-16.521.166-24.122-6.772-22.797-20.815V629.217c-1.325-14.206 6.276-21.226 22.797-21.063h43.612l1.239-4.212c2.641-9.579 7.349-14.373 14.125-14.373 7.763 0 11.646 2.645 11.646 7.93 0 1.487-.662 3.469-1.982 5.947l-2.23 4.708h69.878c16.684-.163 24.285 6.857 22.798 21.063v37.665c1.32 14.043-6.114 21.063-22.302 21.063H326.149v15.612h168.255c6.772 0 10.16 2.81 10.16 8.424 0 5.452-3.388 8.178-10.16 8.178H326.149v8.673c-.166 4.626 2.145 6.857 6.939 6.69h153.139c15.526 0 23.293 6.691 23.293 20.072 0 28.744-3.555 47.163-10.655 55.259-7.106 8.092-19.991 12.142-38.657 12.142-9.912 0-14.868-3.802-14.868-11.399 0-7.766 5.285-11.646 15.859-11.646 10.57 0 17.594-2.021 21.063-6.071 3.469-4.046 5.204-14.826 5.204-32.338 0-6.276-3.059-9.416-9.169-9.416H376.452v34.939h42.869c4.79.167 7.101-2.145 6.939-6.938v-11.894c0-6.277 3.384-9.417 10.159-9.417 6.772 0 10.16 3.14 10.16 9.417v16.602c1.154 14.21-5.7 21.063-20.567 20.567h-115.97c-14.705.329-21.477-6.524-20.319-20.567v-16.602c0-6.443 3.303-9.664 9.912-9.664 6.605 0 9.912 3.221 9.912 9.664Zm16.602-96.641h132.82c4.789.166 7.101-2.146 6.938-6.939v-8.673H326.149v15.612Zm0-39.896v8.177h139.758v-8.177c.163-4.79-2.149-7.101-6.938-6.938H333.088c-4.794-.163-7.105 2.148-6.939 6.938Zm-73.348-437.264c-5.784 0-9.501-3.384-11.151-10.16l-10.159-43.612h-50.056l-10.407 43.612c-1.654 6.776-5.37 10.16-11.151 10.16-7.105 0-10.655-3.136-10.655-9.417l.495-3.716 41.135-166.769C193.163 4.951 198.367.157 206.463.157c8.092 0 13.381 5.123 15.859 15.364l40.639 165.777.496 3.716c0 6.281-3.555 9.417-10.656 9.417ZM206.463 35.097l-20.32 85.242h40.391l-20.071-85.242Zm-48.668 554.472c6.277 0 9.417 3.555 9.417 10.656v40.639h26.266c5.119-.163 7.763-2.808 7.93-7.93v-20.319c0-7.93 3.303-11.895 9.912-11.895 6.443 0 9.664 3.965 9.664 11.895v26.018c.824 14.21-5.947 20.901-20.32 20.072H115.67c-14.21.829-20.9-5.862-20.072-20.072v-26.266c0-7.763 3.136-11.647 9.416-11.647 6.277 0 9.417 3.884 9.417 11.647v20.567c.162 5.122 2.807 7.767 7.929 7.93h26.019v-40.639c0-7.101 3.136-10.656 9.416-10.656ZM95.598 194.678c-7.767 0-11.646-4.707-11.646-14.124v-74.587H23.984v74.587c0 9.417-3.883 14.124-11.646 14.124-7.767 0-11.647-4.707-11.647-14.124V14.529C.691 4.951 4.571.157 12.338.157c7.763 0 11.647 4.794 11.647 14.372v69.632h59.967V14.529c0-9.578 3.88-14.372 11.646-14.372 7.763 0 11.646 4.794 11.646 14.372v166.025c0 9.417-3.883 14.124-11.646 14.124ZM7.878 770.214l38.904-7.186.744-4.708.99-4.956 11.152-74.34c1.32-11.561 4.789-17.345 10.407-17.345 6.605 0 9.912 2.644 9.912 7.929l-.743 4.46-1.24 7.682-7.929 43.86-7.186 33.949 2.973-.496 13.382-2.478c5.284 0 7.929 3.307 7.929 9.912 0 3.965-2.645 6.69-7.93 8.177L17.047 789.79l-6.195.991c-6.776 0-10.16-3.55-10.16-10.655 0-4.79 2.393-8.092 7.187-9.912Zm12.39-103.084c4.127 0 6.853 2.768 8.177 8.301 1.32 5.537 2.973 16.231 4.956 32.09l2.726 25.027.495 7.435c0 5.784-3.221 8.673-9.664 8.673-4.627 0-7.353-2.064-8.177-6.196l-6.939-61.205-.743-6.691c0-4.956 3.055-7.434 9.169-7.434Zm21.31-183.073V319.519c0-9.912 4.128-14.867 12.39-14.867 8.092 0 12.142 4.955 12.142 14.867v164.538c0 9.912-4.131 14.868-12.39 14.868-8.096 0-12.142-4.956-12.142-14.868Zm47.33 160.523c0 6.28-3.47 9.417-10.408 9.417H11.595c-6.776 0-10.16-3.221-10.16-9.664 0-6.277 3.384-9.417 10.16-9.417h25.027v-32.461c0-7.434 3.384-11.151 10.16-11.151 6.605 0 9.912 3.717 9.912 11.151v32.461H78.5c6.938 0 10.407 3.222 10.407 9.664Zm-2.974 41.631c0-6.277 3.798-9.417 11.399-9.417h125.385c7.597 0 11.399 3.14 11.399 9.417 0 6.113-3.802 9.168-11.399 9.168h-63.684c-2.478 6.609-6.194 14.372-11.151 23.293h57.49c13.71 0 20.567 6.938 20.567 20.815v60.463c.495 14.205-6.362 21.392-20.567 21.558h-7.682c-6.61 0-9.912-3.306-9.912-9.912 0-6.609 3.221-9.912 9.664-9.912h3.717c3.965-.162 6.029-2.23 6.195-6.195v-50.798c-.166-5.119-2.811-7.682-7.93-7.682h-15.859v68.144c0 6.772-2.81 10.16-8.425 10.16-5.618 0-8.425-3.388-8.425-10.16v-68.144h-20.319v68.392c0 6.772-2.811 10.16-8.426 10.16-5.617 0-8.425-3.388-8.425-10.16v-68.392h-11.894c-4.956.167-7.519 2.726-7.682 7.682v67.401c0 6.772-2.973 10.16-8.92 10.16-5.948 0-8.92-3.388-8.92-10.16v-73.1c0-13.544 6.69-20.32 20.071-20.32h16.85l8.673-21.558.495-1.735H97.333c-7.6 0-11.4-3.055-11.4-9.168Zm72.704-214.296c-4.956-9.25-7.434-17.594-7.434-25.028 0-8.425 4.127-12.637 12.39-12.637 7.434 0 11.976 4.956 13.629 14.868 3.136 18.999 13.462 28.496 30.974 28.496 8.426 0 15.364-2.973 20.815-8.921 5.452-5.947 8.178-13.628 8.178-23.045 0-14.867-8.673-26.348-26.019-34.443L185.4 399.062c-21.477-10.074-32.214-25.438-32.214-46.09 0-15.197 4.956-27.049 14.868-35.559 9.912-8.506 21.888-12.761 35.931-12.761 16.355 0 29.321 4.793 38.904 14.372 9.579 9.583 14.372 19.742 14.372 30.479 0 7.929-3.964 11.894-11.894 11.894-6.775 0-11.484-4.623-14.124-13.876-3.965-14.373-13.134-21.559-27.506-21.559-18.174 0-27.258 8.758-27.258 26.266 0 11.237 6.443 19.91 19.328 26.019l28.993 13.629c24.284 11.399 36.426 28.993 36.426 52.781 0 16.688-4.793 29.903-14.372 39.648-9.583 9.749-22.635 14.62-39.152 14.62-23.13 0-39.485-9.002-49.064-27.01Zm766.191-37.665c7.434 0 11.975 4.956 13.629 14.868 3.136 18.999 13.462 28.496 30.974 28.496 8.426 0 15.364-2.973 20.815-8.921 5.452-5.947 8.178-13.628 8.178-23.045 0-14.867-8.673-26.348-26.019-34.443l-25.771-12.143c-21.477-10.074-32.214-25.438-32.214-46.09 0-15.197 4.956-27.049 14.868-35.559 9.912-8.506 21.888-12.761 35.931-12.761 16.354 0 29.322 4.793 38.9 14.372 9.58 9.583 14.38 19.742 14.38 30.479 0 7.929-3.97 11.894-11.9 11.894-6.773 0-11.482-4.623-14.122-13.876-3.965-14.373-13.134-21.559-27.506-21.559-18.175 0-27.258 8.758-27.258 26.266 0 11.237 6.443 19.91 19.329 26.019l28.992 13.629c24.285 11.399 36.425 28.993 36.425 52.781 0 16.688-4.79 29.903-14.37 39.648-9.584 9.749-22.636 14.62-39.153 14.62-23.131 0-39.485-9.002-49.064-27.01-4.956-9.25-7.434-17.594-7.434-25.028 0-8.425 4.128-12.637 12.39-12.637Z" clip-rule="evenodd"/></svg>