<svg width="1024" height="1024" viewBox="0 0 1024 1024" fill="none" xmlns="http://www.w3.org/2000/svg">
<g clip-path="url(#clip0_400_6)">
<path d="M512 1024C794.77 1024 1024 794.77 1024 512C1024 229.23 794.77 0 512 0C229.23 0 0 229.23 0 512C0 794.77 229.23 1024 512 1024Z" fill="#DC2626"/>
<path fill-rule="evenodd" clip-rule="evenodd" d="M589.865 600.601V617.612C589.865 624.468 593.171 627.774 599.788 627.536H657.201V577.565H616.092C592.462 577.802 581.592 567.88 583.486 547.796V401.781C581.592 381.464 592.462 371.423 616.092 371.656H678.465L680.238 365.632C684.014 351.932 690.747 345.076 700.439 345.076C711.542 345.076 717.096 348.859 717.096 356.418C717.096 358.543 716.148 361.379 714.261 364.923L711.07 371.656H811.012C834.873 371.423 845.743 381.464 843.617 401.781V455.65C845.506 475.735 834.873 485.774 811.721 485.774H613.61V508.102H854.25C863.935 508.102 868.781 512.123 868.781 520.152C868.781 527.949 863.935 531.847 854.25 531.847H613.61V544.251C613.372 550.868 616.678 554.057 623.534 553.82H842.554C864.76 553.82 875.868 563.389 875.868 582.527C875.868 623.637 870.785 649.979 860.63 661.558C850.468 673.132 832.039 678.923 805.341 678.923C791.165 678.923 784.078 673.485 784.078 662.621C784.078 651.514 791.637 645.965 806.759 645.965C821.876 645.965 831.923 643.074 836.883 637.281C841.845 631.495 844.326 616.078 844.326 591.032C844.326 582.055 839.951 577.565 831.214 577.565H685.554V627.536H746.866C753.715 627.774 757.021 624.468 756.789 617.612V600.601C756.789 591.624 761.629 587.134 771.319 587.134C781.004 587.134 785.85 591.624 785.85 600.601V624.345C787.5 644.668 777.698 654.47 756.434 653.761H590.574C569.543 654.232 559.857 644.431 561.512 624.345V600.601C561.512 591.387 566.237 586.779 575.689 586.779C585.136 586.779 589.865 591.387 589.865 600.601ZM613.61 462.383H803.57C810.419 462.622 813.725 459.316 813.494 452.461V440.056H613.61V462.383ZM613.61 405.325V417.02H813.494V405.325C813.725 398.475 810.419 395.169 803.57 395.402H623.534C616.678 395.169 613.372 398.475 613.61 405.325ZM372.829 345.076C381.805 345.076 386.296 350.16 386.296 360.316V418.438H423.863C431.184 418.205 434.966 414.423 435.204 407.096V378.036C435.204 366.694 439.927 361.025 449.38 361.025C458.594 361.025 463.202 366.694 463.202 378.036V415.249C464.381 435.571 454.696 445.14 434.14 443.954H312.58C292.257 445.14 282.689 435.571 283.874 415.249V377.681C283.874 366.579 288.359 361.025 297.34 361.025C306.317 361.025 310.808 366.579 310.808 377.681V407.096C311.04 414.423 314.823 418.205 322.149 418.438H359.362V360.316C359.362 350.16 363.847 345.076 372.829 345.076ZM158.415 603.436L214.056 593.158L215.12 586.425L216.537 579.337L232.485 473.016C234.374 456.481 239.335 448.207 247.371 448.207C256.817 448.207 261.547 451.99 261.547 459.549L260.483 465.927L258.711 476.914L247.371 539.643L237.093 588.197L241.345 587.488L260.483 583.943C268.041 583.943 271.824 588.672 271.824 598.12C271.824 603.79 268.041 607.689 260.483 609.816L171.528 631.434L162.667 632.852C152.977 632.852 148.137 627.773 148.137 617.612C148.137 610.762 151.559 606.039 158.415 603.436ZM176.135 456.004C182.038 456.004 185.937 459.964 187.83 467.876C189.719 475.796 192.083 491.09 194.918 513.772L198.817 549.567L199.526 560.199C199.526 568.472 194.918 572.603 185.704 572.603C179.087 572.603 175.188 569.651 174.009 563.743L164.085 476.205L163.022 466.636C163.022 459.549 167.392 456.004 176.135 456.004ZM274.304 423.754C274.304 432.736 269.343 437.221 259.42 437.221H163.731C154.04 437.221 149.2 432.614 149.2 423.4C149.2 414.423 154.04 409.932 163.731 409.932H199.526V363.505C199.526 352.874 204.366 347.556 214.056 347.556C223.502 347.556 228.233 352.874 228.233 363.505V409.932H259.42C269.343 409.932 274.304 414.54 274.304 423.754ZM270.051 483.294C270.051 474.317 275.484 469.827 286.354 469.827H465.682C476.547 469.827 481.985 474.317 481.985 483.294C481.985 492.037 476.547 496.407 465.682 496.407H374.6C371.056 505.859 365.74 516.962 358.653 529.72H440.874C460.483 529.72 470.289 539.643 470.289 559.49V645.965C470.998 666.282 461.192 676.56 440.874 676.798H429.887C420.435 676.798 415.711 672.069 415.711 662.621C415.711 653.169 420.318 648.445 429.533 648.445H434.849C440.52 648.213 443.472 645.256 443.709 639.585V566.932C443.472 559.612 439.689 555.947 432.368 555.947H409.687V653.407C409.687 663.092 405.667 667.938 397.636 667.938C389.602 667.938 385.587 663.092 385.587 653.407V555.947H356.526V653.761C356.526 663.446 352.506 668.292 344.476 668.292C336.441 668.292 332.427 663.446 332.427 653.761V555.947H315.416C308.327 556.184 304.662 559.845 304.429 566.932V663.33C304.429 673.015 300.176 677.861 291.671 677.861C283.164 677.861 278.912 673.015 278.912 663.33V558.781C278.912 539.412 288.48 529.72 307.618 529.72H331.718L344.122 498.887L344.831 496.407H286.354C275.484 496.407 270.051 492.037 270.051 483.294Z" fill="white"/>
</g>
<defs>
<clipPath id="clip0_400_6">
<rect width="1024" height="1024" fill="white"/>
</clipPath>
</defs>
</svg>
