<svg xmlns="http://www.w3.org/2000/svg" fill="none" viewBox="0 0 1024 824"><path fill="#FFF" fill-rule="evenodd" d="M1013.48 194.431c-5.78 0-9.5-3.384-11.15-10.16l-10.159-43.612h-50.055l-10.408 43.612c-1.653 6.776-5.37 10.16-11.151 10.16-7.104 0-10.655-3.136-10.655-9.417l.495-3.716 41.135-166.769C953.843 4.951 959.047.157 967.143.157c8.092 0 13.381 5.123 15.859 15.364l40.638 165.777.5 3.716c0 6.281-3.56 9.417-10.66 9.417ZM967.143 35.097l-20.319 85.242h40.391l-20.072-85.242ZM804.984 495.456h-24.036c-5.947 0-10.822-2.23-14.62-6.691-3.307-3.632-4.956-8.011-4.956-13.133V327.944c0-5.451 1.94-10.117 5.823-14 3.88-3.88 8.383-5.824 13.505-5.824h17.842c47.41 0 71.118 31.142 71.118 93.42 0 61.291-21.559 92.595-64.676 93.916Zm-3.469-165.529h-8.177c-5.618.166-8.511 3.469-8.673 9.912v123.899c.162 6.442 3.136 9.749 8.921 9.912h6.938c30.065 0 45.099-24.285 45.099-72.853 0-46.586-14.705-70.208-44.108-70.87Zm57.242-135.496c-6.61 0-9.912-3.965-9.912-11.895v-151.9L824.56 184.272c-1.157 6.776-4.46 10.16-9.911 10.16-5.452 0-8.673-3.303-9.665-9.912L780.452 30.637v151.899c0 7.93-3.306 11.895-9.912 11.895-6.609 0-9.912-3.965-9.912-11.895V21.22c0-14.04 5.781-21.063 17.346-21.063 8.921 0 14.287 5.7 16.107 17.099l20.568 125.633 20.567-125.634C837.032 5.857 842.483.157 851.57.157c11.399 0 17.098 7.024 17.098 21.063v161.316c0 7.93-3.306 11.895-9.911 11.895ZM701.553 498.925c-6.442 0-11.398-4.212-14.867-12.638l-55.011-135.05v134.059c0 9.087-3.803 13.629-11.399 13.629-7.434 0-11.151-4.542-11.151-13.629V321.997c0-11.561 4.623-17.345 13.877-17.345 6.109 0 10.903 4.131 14.372 12.389l55.754 136.289V318.528c0-9.25 3.717-13.876 11.151-13.876 7.597 0 11.399 4.626 11.399 13.876v162.803c0 11.732-4.708 17.594-14.125 17.594Zm-39.399-304.494c-8.096 0-12.143-4.956-12.143-14.868V15.025c0-9.912 4.128-14.868 12.391-14.868 8.092 0 12.142 4.956 12.142 14.868v164.538c0 9.912-4.132 14.868-12.39 14.868ZM556.74 498.925c-5.784 0-9.501-3.384-11.151-10.16l-10.159-43.612h-50.056l-10.407 43.612c-1.653 6.776-5.37 10.16-11.151 10.16-7.105 0-10.655-3.136-10.655-9.417l.495-3.716 41.135-166.768c2.312-9.579 7.515-14.372 15.611-14.372 8.092 0 13.381 5.122 15.859 15.363L566.9 485.792l.496 3.716c0 6.281-3.555 9.417-10.656 9.417Zm-46.338-159.334-20.319 85.242h40.391l-20.072-85.242Zm41.383-144.913c-7.768 0-11.647-4.707-11.647-14.124v-74.587h-59.967v74.587c0 9.417-3.883 14.124-11.647 14.124-7.767 0-11.646-4.707-11.646-14.124V14.529c0-9.578 3.879-14.372 11.646-14.372 7.764 0 11.647 4.794 11.647 14.372v69.632h59.967V14.529c0-9.578 3.879-14.372 11.647-14.372 7.763 0 11.646 4.794 11.646 14.372v166.025c0 9.417-3.883 14.124-11.646 14.124ZM401.024 495.456h-76.569c-5.619 0-10.326-1.898-14.125-5.7-3.802-3.798-5.699-8.34-5.699-13.628V319.271c0-9.745 4.046-14.619 12.142-14.619 8.092 0 12.142 4.874 12.142 14.619v146.697c.163 4.626 2.559 7.023 7.186 7.186h64.923c9.084 0 13.629 3.717 13.629 11.151 0 7.434-4.545 11.151-13.629 11.151ZM347.5 73.753l28.992 13.63c24.284 11.398 36.427 28.992 36.427 52.78 0 16.688-4.794 29.903-14.373 39.648-9.583 9.749-22.635 14.62-39.152 14.62-23.13 0-39.485-9.002-49.064-27.01-4.956-9.25-7.434-17.594-7.434-25.028 0-8.425 4.127-12.637 12.39-12.637 7.434 0 11.976 4.956 13.629 14.868 3.136 18.999 13.463 28.496 30.975 28.496 8.425 0 15.363-2.973 20.815-8.921 5.451-5.947 8.177-13.628 8.177-23.045 0-14.867-8.673-26.348-26.019-34.444l-25.771-12.142c-21.477-10.074-32.213-25.438-32.213-46.09 0-15.197 4.956-27.049 14.867-35.56 9.912-8.506 21.888-12.76 35.931-12.76 16.355 0 29.322 4.793 38.904 14.371 9.58 9.583 14.373 19.743 14.373 30.48 0 7.93-3.965 11.894-11.895 11.894-6.775 0-11.483-4.623-14.124-13.877-3.965-14.372-13.133-21.558-27.505-21.558-18.175 0-27.258 8.758-27.258 26.266 0 11.237 6.443 19.91 19.328 26.02Zm-38.508 694.479v11.894c0 4.793 2.312 7.105 6.938 6.938h40.144v-34.939h-28.745c-16.521.166-24.121-6.772-22.797-20.815V629.217c-1.324-14.206 6.276-21.226 22.797-21.063h43.612l1.24-4.212c2.64-9.579 7.348-14.373 14.124-14.373 7.763 0 11.647 2.645 11.647 7.93 0 1.487-.663 3.469-1.983 5.947l-2.23 4.708h69.879c16.684-.163 24.284 6.857 22.797 21.063v37.665c1.321 14.043-6.113 21.063-22.302 21.063H325.594v15.612h168.255c6.772 0 10.16 2.81 10.16 8.424 0 5.452-3.388 8.178-10.16 8.178H325.594v8.673c-.166 4.626 2.146 6.857 6.939 6.69h153.139c15.526 0 23.293 6.691 23.293 20.072 0 28.744-3.554 47.163-10.655 55.259-7.105 8.092-19.99 12.142-38.657 12.142-9.912 0-14.868-3.802-14.868-11.399 0-7.766 5.285-11.646 15.859-11.646 10.57 0 17.594-2.021 21.063-6.071 3.469-4.046 5.204-14.826 5.204-32.338 0-6.276-3.059-9.416-9.169-9.416H375.898v34.939h42.869c4.789.167 7.101-2.145 6.938-6.938v-11.894c0-6.277 3.384-9.417 10.159-9.417 6.772 0 10.16 3.14 10.16 9.417v16.602c1.154 14.21-5.699 21.063-20.567 20.567H309.488c-14.705.329-21.477-6.524-20.32-20.567v-16.602c0-6.443 3.303-9.664 9.912-9.664 6.606 0 9.912 3.221 9.912 9.664Zm16.602-96.641h132.82c4.789.166 7.101-2.146 6.938-6.939v-8.673H325.594v15.612Zm0-39.896v8.177h139.758v-8.177c.163-4.79-2.149-7.101-6.938-6.938H332.533c-4.793-.163-7.105 2.148-6.939 6.938Zm-73.348-437.264c-5.784 0-9.501-3.384-11.151-10.16l-10.159-43.612h-50.055l-10.408 43.612c-1.653 6.776-5.37 10.16-11.151 10.16-7.105 0-10.655-3.136-10.655-9.417l.495-3.716 41.135-166.769C192.608 4.951 197.812.157 205.908.157c8.092 0 13.381 5.123 15.859 15.364l40.639 165.777.496 3.716c0 6.281-3.555 9.417-10.656 9.417ZM205.908 35.097l-20.319 85.242h40.391l-20.072-85.242Zm-48.667 554.472c6.276 0 9.416 3.555 9.416 10.656v40.639h26.267c5.118-.163 7.763-2.808 7.929-7.93v-20.319c0-7.93 3.303-11.895 9.912-11.895 6.443 0 9.664 3.965 9.664 11.895v26.018c.825 14.21-5.947 20.901-20.319 20.072h-84.995c-14.21.829-20.9-5.862-20.071-20.072v-26.266c0-7.763 3.136-11.647 9.416-11.647 6.276 0 9.416 3.884 9.416 11.647v20.567c.163 5.122 2.807 7.767 7.929 7.93h26.02v-40.639c0-7.101 3.136-10.656 9.416-10.656ZM95.044 194.678c-7.767 0-11.647-4.707-11.647-14.124v-74.587H23.43v74.587c0 9.417-3.883 14.124-11.647 14.124-7.766 0-11.646-4.707-11.646-14.124V14.529C.137 4.951 4.017.157 11.783.157c7.764 0 11.647 4.794 11.647 14.372v69.632h59.967V14.529c0-9.578 3.88-14.372 11.647-14.372 7.763 0 11.646 4.794 11.646 14.372v166.025c0 9.417-3.883 14.124-11.646 14.124ZM7.323 770.214l38.904-7.186.744-4.708.99-4.956 11.152-74.34c1.32-11.561 4.79-17.345 10.407-17.345 6.606 0 9.912 2.644 9.912 7.929l-.743 4.46-1.24 7.682-7.929 43.86-7.186 33.949 2.974-.496 13.38-2.478c5.286 0 7.93 3.307 7.93 9.912 0 3.965-2.644 6.69-7.93 8.177L16.492 789.79l-6.194.991c-6.776 0-10.16-3.55-10.16-10.655 0-4.79 2.393-8.092 7.186-9.912Zm12.39-103.084c4.127 0 6.853 2.768 8.177 8.301 1.32 5.537 2.974 16.231 4.956 32.09l2.726 25.027.495 7.435c0 5.784-3.22 8.673-9.664 8.673-4.626 0-7.352-2.064-8.177-6.196l-6.938-61.205-.743-6.691c0-4.956 3.054-7.434 9.168-7.434Zm21.31-183.073V319.519c0-9.912 4.128-14.867 12.39-14.867 8.093 0 12.143 4.955 12.143 14.867v164.538c0 9.912-4.132 14.868-12.39 14.868-8.097 0-12.142-4.956-12.142-14.868Zm47.33 160.523c0 6.28-3.47 9.417-10.408 9.417H11.04c-6.776 0-10.16-3.221-10.16-9.664 0-6.277 3.384-9.417 10.16-9.417h25.027v-32.461c0-7.434 3.385-11.151 10.16-11.151 6.605 0 9.912 3.717 9.912 11.151v32.461h21.806c6.939 0 10.408 3.222 10.408 9.664Zm-2.974 41.631c0-6.277 3.798-9.417 11.4-9.417h125.385c7.596 0 11.399 3.14 11.399 9.417 0 6.113-3.803 9.168-11.399 9.168H158.48c-2.478 6.609-6.195 14.372-11.151 23.293h57.489c13.71 0 20.567 6.938 20.567 20.815v60.463c.496 14.205-6.361 21.392-20.567 21.558h-7.682c-6.609 0-9.912-3.306-9.912-9.912 0-6.609 3.222-9.912 9.664-9.912h3.718c3.964-.162 6.028-2.23 6.194-6.195v-50.798c-.166-5.119-2.811-7.682-7.929-7.682h-15.859v68.144c0 6.772-2.811 10.16-8.426 10.16-5.617 0-8.425-3.388-8.425-10.16v-68.144h-20.319v68.392c0 6.772-2.811 10.16-8.425 10.16-5.618 0-8.425-3.388-8.425-10.16v-68.392h-11.894c-4.957.167-7.519 2.726-7.682 7.682v67.401c0 6.772-2.974 10.16-8.921 10.16-5.947 0-8.92-3.388-8.92-10.16v-73.1c0-13.544 6.69-20.32 20.071-20.32h16.85l8.673-21.558.496-1.735H96.778c-7.6 0-11.399-3.055-11.399-9.168Zm72.704-214.296c-4.956-9.25-7.434-17.594-7.434-25.028 0-8.425 4.128-12.637 12.39-12.637 7.434 0 11.976 4.956 13.629 14.868 3.136 18.999 13.463 28.496 30.975 28.496 8.425 0 15.363-2.973 20.815-8.921 5.451-5.947 8.177-13.628 8.177-23.045 0-14.867-8.673-26.348-26.019-34.443l-25.77-12.143c-21.478-10.074-32.214-25.438-32.214-46.09 0-15.197 4.955-27.049 14.867-35.559 9.912-8.506 21.888-12.761 35.931-12.761 16.355 0 29.322 4.793 38.904 14.372 9.58 9.583 14.373 19.742 14.373 30.479 0 7.929-3.965 11.894-11.894 11.894-6.776 0-11.484-4.623-14.125-13.876-3.965-14.373-13.133-21.559-27.505-21.559-18.175 0-27.258 8.758-27.258 26.266 0 11.237 6.443 19.91 19.328 26.019l28.992 13.629c24.285 11.399 36.427 28.993 36.427 52.781 0 16.688-4.794 29.903-14.373 39.648-9.582 9.749-22.634 14.62-39.152 14.62-23.13 0-39.485-9.002-49.064-27.01Zm766.191-37.665c7.434 0 11.976 4.956 13.629 14.868 3.136 18.999 13.462 28.496 30.975 28.496 8.425 0 15.363-2.973 20.815-8.921 5.451-5.947 8.177-13.628 8.177-23.045 0-14.867-8.673-26.348-26.019-34.443l-25.77-12.143c-21.478-10.074-32.214-25.438-32.214-46.09 0-15.197 4.956-27.049 14.868-35.559 9.911-8.506 21.887-12.761 35.93-12.761 16.355 0 29.322 4.793 38.905 14.372 9.58 9.583 14.37 19.742 14.37 30.479 0 7.929-3.96 11.894-11.89 11.894-6.778 0-11.486-4.623-14.127-13.876-3.965-14.373-13.133-21.559-27.506-21.559-18.174 0-27.257 8.758-27.257 26.266 0 11.237 6.442 19.91 19.328 26.019l28.992 13.629c24.28 11.399 36.43 28.993 36.43 52.781 0 16.688-4.8 29.903-14.38 39.648-9.578 9.749-22.63 14.62-39.148 14.62-23.13 0-39.485-9.002-49.064-27.01-4.956-9.25-7.434-17.594-7.434-25.028 0-8.425 4.128-12.637 12.39-12.637Z" clip-rule="evenodd"/></svg>