<svg width="1024" height="824" viewBox="0 0 1024 824" fill="none" xmlns="http://www.w3.org/2000/svg">
<g clip-path="url(#clip0_400_16)">
<path fill-rule="evenodd" clip-rule="evenodd" d="M1013.48 194.43C1007.7 194.43 1003.98 191.046 1002.33 184.27L992.171 140.658H942.116L931.708 184.27C930.055 191.046 926.338 194.43 920.557 194.43C913.453 194.43 909.902 191.294 909.902 185.013L910.397 181.297L951.532 14.5283C953.843 4.95025 959.047 0.15625 967.143 0.15625C975.235 0.15625 980.524 5.27925 983.002 15.5203L1023.64 181.297L1024.14 185.013C1024.14 191.294 1020.58 194.43 1013.48 194.43ZM967.143 35.0962L946.824 120.338H987.215L967.143 35.0962ZM804.984 495.455H780.948C775.001 495.455 770.126 493.225 766.328 488.764C763.021 485.132 761.372 480.753 761.372 475.631V327.943C761.372 322.492 763.312 317.826 767.195 313.943C771.075 310.063 775.578 308.119 780.7 308.119H798.542C845.952 308.119 869.66 339.261 869.66 401.539C869.66 462.83 848.101 494.134 804.984 495.455ZM801.515 329.926H793.338C787.72 330.092 784.827 333.395 784.665 339.838V463.737C784.827 470.179 787.801 473.486 793.586 473.649H800.524C830.589 473.649 845.623 449.364 845.623 400.796C845.623 354.21 830.918 330.588 801.515 329.926ZM858.757 194.43C852.147 194.43 848.845 190.465 848.845 182.535V30.6353L824.56 184.271C823.403 191.047 820.1 194.431 814.649 194.431C809.197 194.431 805.976 191.128 804.984 184.519L780.452 30.6362V182.535C780.452 190.465 777.146 194.43 770.54 194.43C763.931 194.43 760.628 190.465 760.628 182.535V21.2192C760.628 7.17925 766.409 0.15625 777.974 0.15625C786.895 0.15625 792.261 5.85625 794.081 17.2553L814.649 142.888L835.216 17.2542C837.032 5.85625 842.483 0.15625 851.57 0.15625C862.969 0.15625 868.668 7.18025 868.668 21.2192V182.535C868.668 190.465 865.362 194.43 858.757 194.43ZM701.553 498.924C695.111 498.924 690.155 494.712 686.686 486.286L631.675 351.236V485.295C631.675 494.382 627.872 498.924 620.276 498.924C612.842 498.924 609.125 494.382 609.125 485.295V321.996C609.125 310.435 613.748 304.651 623.002 304.651C629.111 304.651 633.905 308.782 637.374 317.04L693.128 453.329V318.527C693.128 309.277 696.845 304.651 704.279 304.651C711.876 304.651 715.678 309.277 715.678 318.527V481.33C715.678 493.062 710.97 498.924 701.553 498.924ZM662.154 194.43C654.058 194.43 650.011 189.474 650.011 179.562V15.0243C650.011 5.11225 654.139 0.15625 662.402 0.15625C670.494 0.15625 674.544 5.11225 674.544 15.0243V179.562C674.544 189.474 670.412 194.43 662.154 194.43ZM556.74 498.924C550.956 498.924 547.239 495.54 545.589 488.764L535.43 445.152H485.374L474.967 488.764C473.314 495.54 469.597 498.924 463.816 498.924C456.711 498.924 453.161 495.788 453.161 489.507L453.656 485.791L494.791 319.023C497.103 309.444 502.306 304.651 510.402 304.651C518.494 304.651 523.783 309.773 526.261 320.014L566.9 485.791L567.396 489.507C567.396 495.788 563.841 498.924 556.74 498.924ZM510.402 339.59L490.083 424.832H530.474L510.402 339.59ZM551.785 194.677C544.017 194.677 540.138 189.97 540.138 180.553V105.966H480.171V180.553C480.171 189.97 476.288 194.677 468.524 194.677C460.757 194.677 456.878 189.97 456.878 180.553V14.5283C456.878 4.95025 460.757 0.15625 468.524 0.15625C476.288 0.15625 480.171 4.95025 480.171 14.5283V84.1603H540.138V14.5283C540.138 4.95025 544.017 0.15625 551.785 0.15625C559.548 0.15625 563.431 4.95025 563.431 14.5283V180.553C563.431 189.97 559.548 194.677 551.785 194.677ZM401.024 495.455H324.455C318.836 495.455 314.129 493.557 310.33 489.755C306.528 485.957 304.631 481.415 304.631 476.127V319.27C304.631 309.525 308.677 304.651 316.773 304.651C324.865 304.651 328.915 309.525 328.915 319.27V465.967C329.078 470.593 331.474 472.99 336.101 473.153H401.024C410.108 473.153 414.653 476.87 414.653 484.304C414.653 491.738 410.108 495.455 401.024 495.455ZM347.5 73.7523L376.492 87.3823C400.776 98.7803 412.919 116.374 412.919 140.162C412.919 156.85 408.125 170.065 398.546 179.81C388.963 189.559 375.911 194.43 359.394 194.43C336.264 194.43 319.909 185.428 310.33 167.42C305.374 158.17 302.896 149.826 302.896 142.392C302.896 133.967 307.023 129.755 315.286 129.755C322.72 129.755 327.262 134.711 328.915 144.623C332.051 163.622 342.378 173.119 359.89 173.119C368.315 173.119 375.253 170.146 380.705 164.198C386.156 158.251 388.882 150.57 388.882 141.153C388.882 126.286 380.209 114.805 362.863 106.709L337.092 94.5673C315.615 84.4933 304.879 69.1292 304.879 48.4772C304.879 33.2802 309.835 21.4283 319.746 12.9173C329.658 4.41125 341.634 0.15725 355.677 0.15725C372.032 0.15725 384.999 4.95025 394.581 14.5283C404.161 24.1113 408.954 34.2712 408.954 45.0082C408.954 52.9382 404.989 56.9022 397.059 56.9022C390.284 56.9022 385.576 52.2792 382.935 43.0252C378.97 28.6532 369.802 21.4673 355.43 21.4673C337.255 21.4673 328.172 30.2253 328.172 47.7332C328.172 58.9703 334.615 67.6423 347.5 73.7523ZM308.992 768.231V780.125C308.992 784.918 311.304 787.23 315.93 787.063H356.074V752.124H327.329C310.808 752.29 303.208 745.352 304.532 731.309V629.216C303.208 615.01 310.808 607.99 327.329 608.153H370.941L372.181 603.941C374.821 594.362 379.529 589.568 386.305 589.568C394.068 589.568 397.952 592.213 397.952 597.498C397.952 598.985 397.289 600.967 395.969 603.445L393.739 608.153H463.618C480.302 607.99 487.902 615.01 486.415 629.216V666.881C487.736 680.924 480.302 687.944 464.113 687.944H325.594V703.556H493.849C500.621 703.556 504.009 706.366 504.009 711.98C504.009 717.432 500.621 720.158 493.849 720.158H325.594V728.831C325.428 733.457 327.74 735.688 332.533 735.521H485.672C501.198 735.521 508.965 742.212 508.965 755.593C508.965 784.337 505.411 802.756 498.31 810.852C491.205 818.944 478.32 822.994 459.653 822.994C449.741 822.994 444.785 819.192 444.785 811.595C444.785 803.829 450.07 799.949 460.644 799.949C471.214 799.949 478.238 797.928 481.707 793.878C485.176 789.832 486.911 779.052 486.911 761.54C486.911 755.264 483.852 752.124 477.742 752.124H375.898V787.063H418.767C423.556 787.23 425.868 784.918 425.705 780.125V768.231C425.705 761.954 429.089 758.814 435.864 758.814C442.636 758.814 446.024 761.954 446.024 768.231V784.833C447.178 799.043 440.325 805.896 425.457 805.4H309.488C294.783 805.729 288.011 798.876 289.168 784.833V768.231C289.168 761.788 292.471 758.567 299.08 758.567C305.686 758.567 308.992 761.788 308.992 768.231ZM325.594 671.59H458.414C463.203 671.756 465.515 669.444 465.352 664.651V655.978H325.594V671.59ZM325.594 631.694V639.871H465.352V631.694C465.515 626.904 463.203 624.593 458.414 624.756H332.533C327.74 624.593 325.428 626.904 325.594 631.694ZM252.246 194.43C246.462 194.43 242.745 191.046 241.095 184.27L230.936 140.658H180.881L170.473 184.27C168.82 191.046 165.103 194.43 159.322 194.43C152.217 194.43 148.667 191.294 148.667 185.013L149.162 181.297L190.297 14.5283C192.608 4.95025 197.812 0.15625 205.908 0.15625C214 0.15625 219.289 5.27925 221.767 15.5203L262.406 181.297L262.902 185.013C262.902 191.294 259.347 194.43 252.246 194.43ZM205.908 35.0962L185.589 120.338H225.98L205.908 35.0962ZM157.241 589.568C163.517 589.568 166.657 593.123 166.657 600.224V640.863H192.924C198.042 640.7 200.687 638.055 200.853 632.933V612.614C200.853 604.684 204.156 600.719 210.765 600.719C217.208 600.719 220.429 604.684 220.429 612.614V638.632C221.254 652.842 214.482 659.533 200.11 658.704H115.115C100.905 659.533 94.2147 652.842 95.0437 638.632V612.366C95.0437 604.603 98.1797 600.719 104.46 600.719C110.736 600.719 113.876 604.603 113.876 612.366V632.933C114.039 638.055 116.683 640.7 121.805 640.863H147.825V600.224C147.825 593.123 150.961 589.568 157.241 589.568ZM95.0437 194.677C87.2767 194.677 83.3967 189.97 83.3967 180.553V105.966H23.4297V180.553C23.4297 189.97 19.5467 194.677 11.7827 194.677C4.01672 194.677 0.136719 189.97 0.136719 180.553V14.5283C0.136719 4.95025 4.01672 0.15625 11.7827 0.15625C19.5467 0.15625 23.4297 4.95025 23.4297 14.5283V84.1603H83.3967V14.5283C83.3967 4.95025 87.2767 0.15625 95.0437 0.15625C102.807 0.15625 106.69 4.95025 106.69 14.5283V180.553C106.69 189.97 102.807 194.677 95.0437 194.677ZM7.32272 770.213L46.2267 763.027L46.9707 758.319L47.9607 753.363L59.1127 679.023C60.4327 667.462 63.9027 661.678 69.5197 661.678C76.1257 661.678 79.4317 664.322 79.4317 669.607L78.6887 674.067L77.4487 681.749L69.5197 725.609L62.3337 759.558L65.3077 759.062L78.6877 756.584C83.9737 756.584 86.6177 759.891 86.6177 766.496C86.6177 770.461 83.9737 773.186 78.6877 774.673L16.4917 789.789L10.2977 790.78C3.52172 790.78 0.137719 787.23 0.137719 780.125C0.137719 775.335 2.52972 772.033 7.32272 770.213ZM19.7127 667.129C23.8397 667.129 26.5657 669.897 27.8897 675.43C29.2097 680.967 30.8637 691.661 32.8457 707.52L35.5717 732.547L36.0667 739.982C36.0667 745.766 32.8467 748.655 26.4027 748.655C21.7767 748.655 19.0507 746.591 18.2257 742.459L11.2877 681.254L10.5447 674.563C10.5447 669.607 13.5987 667.129 19.7127 667.129ZM41.0227 484.056V319.518C41.0227 309.606 45.1507 304.651 53.4127 304.651C61.5057 304.651 65.5557 309.606 65.5557 319.518V484.056C65.5557 493.968 61.4237 498.924 53.1657 498.924C45.0687 498.924 41.0227 493.968 41.0227 484.056ZM88.3527 644.579C88.3527 650.859 84.8827 653.996 77.9447 653.996H11.0397C4.26372 653.996 0.879719 650.775 0.879719 644.332C0.879719 638.055 4.26372 634.915 11.0397 634.915H36.0667V602.454C36.0667 595.02 39.4517 591.303 46.2267 591.303C52.8317 591.303 56.1387 595.02 56.1387 602.454V634.915H77.9447C84.8837 634.915 88.3527 638.137 88.3527 644.579ZM85.3787 686.21C85.3787 679.933 89.1767 676.793 96.7787 676.793H222.164C229.76 676.793 233.563 679.933 233.563 686.21C233.563 692.323 229.76 695.378 222.164 695.378H158.48C156.002 701.987 152.285 709.75 147.329 718.671H204.818C218.528 718.671 225.385 725.609 225.385 739.486V799.949C225.881 814.154 219.024 821.341 204.818 821.507H197.136C190.527 821.507 187.224 818.201 187.224 811.595C187.224 804.986 190.446 801.683 196.888 801.683H200.606C204.57 801.521 206.634 799.453 206.8 795.488V744.69C206.634 739.571 203.989 737.008 198.871 737.008H183.012V805.152C183.012 811.924 180.201 815.312 174.586 815.312C168.969 815.312 166.161 811.924 166.161 805.152V737.008H145.842V805.4C145.842 812.172 143.031 815.56 137.417 815.56C131.799 815.56 128.992 812.172 128.992 805.4V737.008H117.098C112.141 737.175 109.579 739.734 109.416 744.69V812.091C109.416 818.863 106.442 822.251 100.495 822.251C94.5477 822.251 91.5747 818.863 91.5747 812.091V738.991C91.5747 725.447 98.2647 718.671 111.646 718.671H128.496L137.169 697.113L137.665 695.378H96.7777C89.1777 695.378 85.3787 692.323 85.3787 686.21ZM158.083 471.914C153.127 462.664 150.649 454.32 150.649 446.886C150.649 438.461 154.777 434.249 163.039 434.249C170.473 434.249 175.015 439.205 176.668 449.117C179.804 468.116 190.131 477.613 207.643 477.613C216.068 477.613 223.006 474.64 228.458 468.692C233.909 462.745 236.635 455.064 236.635 445.647C236.635 430.78 227.962 419.299 210.616 411.204L184.846 399.061C163.368 388.987 152.632 373.623 152.632 352.971C152.632 337.774 157.587 325.922 167.499 317.412C177.411 308.906 189.387 304.651 203.43 304.651C219.785 304.651 232.752 309.444 242.334 319.023C251.914 328.606 256.707 338.765 256.707 349.502C256.707 357.431 252.742 361.396 244.813 361.396C238.037 361.396 233.329 356.773 230.688 347.52C226.723 333.147 217.555 325.961 203.183 325.961C185.008 325.961 175.925 334.719 175.925 352.227C175.925 363.464 182.368 372.137 195.253 378.246L224.245 391.875C248.53 403.274 260.672 420.868 260.672 444.656C260.672 461.344 255.878 474.559 246.299 484.304C236.717 494.053 223.665 498.924 207.147 498.924C184.017 498.924 167.662 489.922 158.083 471.914ZM924.274 434.249C931.708 434.249 936.25 439.205 937.903 449.117C941.039 468.116 951.365 477.613 968.878 477.613C977.303 477.613 984.241 474.64 989.693 468.692C995.144 462.745 997.87 455.064 997.87 445.647C997.87 430.78 989.197 419.299 971.851 411.204L946.081 399.061C924.603 388.987 913.867 373.623 913.867 352.971C913.867 337.774 918.823 325.922 928.735 317.412C938.646 308.906 950.622 304.651 964.665 304.651C981.02 304.651 993.987 309.444 1003.57 319.023C1013.15 328.606 1017.94 338.765 1017.94 349.502C1017.94 357.431 1013.98 361.396 1006.05 361.396C999.272 361.396 994.564 356.773 991.923 347.52C987.958 333.147 978.79 325.961 964.417 325.961C946.243 325.961 937.16 334.719 937.16 352.227C937.16 363.464 943.602 372.137 956.488 378.246L985.48 391.875C1009.76 403.274 1021.91 420.868 1021.91 444.656C1021.91 461.344 1017.11 474.559 1007.53 484.304C997.952 494.053 984.9 498.924 968.382 498.924C945.252 498.924 928.897 489.922 919.318 471.914C914.362 462.664 911.884 454.32 911.884 446.886C911.884 438.461 916.012 434.249 924.274 434.249Z" fill="black"/>
</g>
<defs>
<clipPath id="clip0_400_16">
<rect width="1024" height="824" fill="white"/>
</clipPath>
</defs>
</svg>
