<svg xmlns="http://www.w3.org/2000/svg" fill="none" viewBox="0 0 1024 590"><path fill="#000" d="M.543 93.865c0 55.005 40.37 91.59 94.113 91.59 44.407 0 85.534-26.24 85.534-75.946h-27.25c-2.271 31.034-18.924 46.173-47.94 46.173-36.585 0-44.911-29.52-44.911-61.312 0-31.034 6.308-66.106 43.65-66.106 30.53 0 40.875 17.157 47.182 43.903h26.241V3.033H152.94l-5.803 12.11C132.503 5.052 113.831.51 96.422.51 41.418.51.543 38.357.543 93.865ZM195.409 157.701v22.456h101.682v-22.456h-26.745c-2.523 0-4.794-1.514-4.794-5.299v-48.949c0-17.914 13.121-33.305 24.222-33.305-2.523 3.28-4.289 6.308-4.289 11.606 0 12.868 11.102 20.942 23.717 20.942 15.644 0 26.241-11.101 26.241-26.745 0-20.437-15.391-30.025-34.062-30.025-11.607 0-26.998 2.776-38.856 24.222l2.27-22.203-69.386 2.27v22.456h7.822c6.308 0 10.597 0 10.597 9.588v71.152c0 3.533-2.271 4.29-4.289 4.29h-14.13ZM347.221 114.807c0 48.192 31.539 69.134 75.946 69.134 31.034 0 68.629-12.615 70.9-49.201h-26.241c-4.794 17.662-14.129 23.465-32.548 23.465-24.727 0-33.053-13.625-33.053-37.342h93.356c0-47.435-24.727-75.442-73.423-75.442-43.398 0-74.937 24.727-74.937 69.386Zm74.937-45.668c15.895 0 18.419 17.157 18.419 29.268H402.73c0-12.11 5.046-29.268 19.428-29.268ZM511.323 114.807c0 48.192 31.539 69.134 75.946 69.134 31.034 0 68.629-12.615 70.9-49.201h-26.241c-4.794 17.662-14.129 23.465-32.548 23.465-24.727 0-33.053-13.625-33.053-37.342h93.356c0-47.435-24.727-75.442-73.423-75.442-43.398 0-74.937 24.727-74.937 69.386Zm74.937-45.668c15.895 0 18.418 17.157 18.418 29.268h-37.846c0-12.11 5.046-29.268 19.428-29.268ZM671.135 221.031v22.456h90.328v-22.456h-15.895c-4.542 0-5.047-4.794-5.047-9.588v-34.062l-2.523-11.859c11.607 17.158 27.25 18.672 36.838 18.672 40.37 0 60.303-30.53 60.303-68.125 0-36.585-14.887-70.9-56.014-70.9-15.643 0-31.287 5.803-40.874 18.671l2.018-15.895-69.638 2.27v21.7h13.625c2.775 0 5.298 2.522 5.298 5.298v134.483c0 9.083-2.775 9.335-5.046 9.335h-13.373Zm88.562-61.06c-20.185 0-20.185-30.529-20.185-46.173 0-18.923 2.019-44.407 21.194-44.407 15.896 0 19.428 10.597 19.428 43.903 0 33.053-4.037 46.677-20.437 46.677ZM840.727 213.21c0 22.455 20.942 32.043 40.875 32.043 20.942 0 40.117-9.588 48.696-29.268 58.284-133.978 57.78-143.314 67.368-143.314h11.354V50.72h-66.611v21.951h14.887c5.55 0 6.055 1.514 6.055 4.29 0 2.523-3.28 10.849-22.708 55.004l-2.523 11.606-2.271-11.859c-16.4-38.099-22.204-51.724-22.204-54.751 0-4.037 2.019-4.29 11.607-4.29h7.065V50.72h-90.581v21.951l6.056-.252c5.551 0 11.102 1.01 13.877 6.56 50.21 116.821 50.463 117.073 50.463 117.326-5.804 18.671-14.635 28.259-27.25 28.259-3.28 0-5.299-1.01-6.308-2.019 6.812-3.532 10.345-7.822 10.345-15.643 0-12.616-9.336-19.428-21.447-19.428-15.896 0-26.745 8.831-26.745 25.736ZM.543 296.899c0 55.004 40.37 91.589 94.113 91.589 44.407 0 85.534-26.24 85.534-75.946h-27.25c-2.271 31.034-18.924 46.173-47.94 46.173-36.585 0-44.911-29.52-44.911-61.312 0-31.034 6.308-66.106 43.65-66.106 30.53 0 40.875 17.157 47.182 43.903h26.241v-69.134H152.94l-5.803 12.111c-14.634-10.093-33.306-14.634-50.715-14.634-55.004 0-95.879 37.847-95.879 93.356ZM195.409 360.734v22.456h101.682v-22.456h-26.745c-2.523 0-4.794-1.514-4.794-5.299v-48.949c0-17.914 13.121-33.305 24.222-33.305-2.523 3.28-4.289 6.308-4.289 11.607 0 12.867 11.102 20.941 23.717 20.941 15.644 0 26.241-11.101 26.241-26.745 0-20.437-15.391-30.025-34.062-30.025-11.607 0-26.998 2.776-38.856 24.222l2.27-22.203-69.386 2.27v22.456h7.822c6.308 0 10.597 0 10.597 9.588v71.152c0 3.533-2.271 4.29-4.289 4.29h-14.13ZM380.808 302.702c11.102 0 23.97-5.299 23.97-17.914 0-7.57-3.533-11.102-9.84-14.13 2.018-2.019 6.56-5.551 17.157-5.551 7.569 0 16.148 2.776 16.905 14.382v20.942c-13.12 1.514-24.979 4.289-36.586 7.822-22.203 6.812-44.659 16.148-44.659 42.388 0 24.727 20.942 35.829 42.893 35.829 16.653 0 33.558-6.308 42.641-22.709 3.28 20.438 16.4 22.709 28.511 22.709 26.241 0 32.044-4.794 38.1-7.57v-25.736c-3.785 1.766-8.074 3.28-11.607 3.28-5.803 0-8.074-2.523-8.074-8.578v-60.051c0-33.557-35.828-39.613-61.564-39.613-21.194 0-63.583 2.523-63.583 32.801 0 14.129 12.616 21.699 25.736 21.699Zm19.933 41.379c0-15.896 15.139-22.204 28.259-24.222v19.428c0 8.831-8.327 17.157-17.41 17.157-7.065 0-10.849-5.803-10.849-12.363ZM509.497 424.064v22.456h90.328v-22.456H583.93c-4.542 0-5.047-4.794-5.047-9.588v-34.062l-2.523-11.859c11.607 17.158 27.25 18.672 36.838 18.672 40.37 0 60.303-30.53 60.303-68.125 0-36.585-14.887-70.9-56.014-70.9-15.643 0-31.287 5.803-40.874 18.671l2.018-15.895-69.638 2.27v21.699h13.625c2.775 0 5.298 2.523 5.298 5.299v134.483c0 9.083-2.775 9.335-5.046 9.335h-13.373Zm88.562-61.06c-20.185 0-20.185-30.529-20.185-46.173 0-18.923 2.019-44.407 21.194-44.407 15.896 0 19.429 10.597 19.429 43.903 0 33.053-4.037 46.677-20.438 46.677ZM686.658 424.064v22.456h90.328v-22.456h-15.895c-4.542 0-5.046-4.794-5.046-9.588v-34.062l-2.524-11.859c11.607 17.158 27.25 18.672 36.838 18.672 40.37 0 60.303-30.53 60.303-68.125 0-36.585-14.887-70.9-56.014-70.9-15.643 0-31.286 5.803-40.874 18.671l2.018-15.895-69.638 2.27v21.699h13.625c2.775 0 5.298 2.523 5.298 5.299v134.483c0 9.083-2.775 9.335-5.046 9.335h-13.373Zm88.562-61.06c-20.185 0-20.185-30.529-20.185-46.173 0-18.923 2.019-44.407 21.195-44.407 15.895 0 19.428 10.597 19.428 43.903 0 33.053-4.037 46.677-20.438 46.677ZM856.25 416.243c0 22.455 20.942 32.043 40.875 32.043 20.942 0 40.118-9.588 48.696-29.268 58.289-133.978 57.779-143.314 67.369-143.314h11.35v-21.951h-66.608v21.951h14.887c5.551 0 6.055 1.514 6.055 4.29 0 2.523-3.28 10.849-22.708 55.004l-2.523 11.606-2.271-11.859c-16.4-38.099-22.203-51.724-22.203-54.751 0-4.037 2.018-4.29 11.606-4.29h7.065v-21.951h-90.581v21.951l6.056-.252c5.551 0 11.102 1.009 13.877 6.56 50.21 116.821 50.463 117.073 50.463 117.326-5.804 18.671-14.634 28.259-27.25 28.259-3.28 0-5.299-1.01-6.308-2.019 6.813-3.532 10.345-7.822 10.345-15.643 0-12.616-9.336-19.428-21.447-19.428-15.895 0-26.745 8.831-26.745 25.736ZM151.678 410.108h-24.222l-5.803 10.345h-.504c-16.149-8.326-32.044-12.868-50.21-12.868-35.577 0-70.144 18.167-70.144 57.023 0 24.979 15.14 43.145 39.109 49.201l63.583 15.895c7.821 2.019 15.138 5.804 15.138 14.382 0 16.401-20.437 20.185-32.8 20.185-26.493 0-52.986-13.877-57.275-43.145H2.814v67.62h24.222c.504 0 1.01-1.514 6.055-13.121 16.905 11.354 37.343 15.139 57.275 15.139 35.829 0 70.9-19.428 70.9-58.536 0-30.53-18.419-44.66-46.173-51.472l-59.798-14.634c-6.308-1.514-10.345-6.056-10.345-13.121 0-15.138 17.662-18.923 30.278-18.923 19.68 0 38.856 8.831 47.182 28.007 1.009 2.018 3.785 13.372 4.289 13.372h24.979v-65.349ZM269.786 563.767v22.455h83.516v-22.455h-13.373c-4.541 0-5.046-5.047-5.046-9.588v-68.377c0-25.231-25.231-34.567-46.173-34.567-19.933 0-36.838 5.803-46.173 24.222l2.018-13.877v-67.62l-70.395 4.794v22.204h14.382c3.027 0 5.046 1.513 5.046 6.307v127.166c0 9.083-2.776 9.336-4.794 9.336h-12.868v22.455h84.02v-22.455h-9.84c-4.542 0-5.046-5.047-5.046-9.588V501.95c0-12.868 9.335-21.447 22.708-21.447 8.831 0 16.148 5.299 16.148 15.139v58.789c0 9.083-2.775 9.336-4.794 9.336h-9.336ZM514.559 520.873c0-45.416-30.277-69.386-72.918-69.386-44.912 0-75.946 22.709-75.946 69.386 0 47.94 34.314 69.134 73.171 69.134 43.145 0 75.693-23.213 75.693-69.134Zm-94.112.253c0-26.493 3.532-45.921 20.185-45.921 15.896 0 18.923 19.176 18.923 45.921s-3.028 45.164-19.176 45.164c-16.4 0-19.932-18.671-19.932-45.164ZM644.816 531.723c12.111 36.333 18.166 54.499 18.419 54.499h49.958l33.053-98.401c.757-2.776 2.523-9.084 11.606-9.084h8.831v-21.951h-62.826v21.951h12.868c4.289 0 5.046 2.019 5.046 4.794 0 1.514-5.046 18.167-19.428 61.312l-2.271 11.102-2.018-11.102c-15.896-51.472-18.671-60.555-18.671-62.321 0-1.514.757-3.785 3.532-3.785h11.607v-21.951h-79.731v21.951h10.092c5.299 0 6.813 1.514 6.813 3.785 0 3.532-1.767 8.579-19.176 62.321l-1.766 10.85-2.019-10.85c-16.4-54.247-18.166-61.312-18.166-61.564 0-3.28 2.018-4.542 3.28-4.542h10.597v-21.951h-83.011v21.951h8.074c9.84 0 10.849 5.299 11.859 7.822l31.791 99.663h50.967l17.915-54.499 1.261-8.326 1.514 8.326Z"/></svg>