<svg xmlns="http://www.w3.org/2000/svg" fill="none" viewBox="0 0 1024 590"><path fill="#FFF" d="M.365 93.946c0 55.004 40.37 91.589 94.113 91.589 44.407 0 85.534-26.24 85.534-75.946h-27.25c-2.271 31.034-18.923 46.173-47.939 46.173-36.586 0-44.912-29.52-44.912-61.312 0-31.034 6.308-66.106 43.65-66.106 30.53 0 40.875 17.157 47.183 43.903h26.24V3.113h-24.222l-5.803 12.111C132.325 5.131 113.654.59 96.244.59 41.24.59.365 38.437.365 93.946ZM195.232 157.781v22.456h101.682v-22.456h-26.746c-2.523 0-4.793-1.514-4.793-5.299v-48.949c0-17.914 13.12-33.305 24.222-33.305-2.524 3.28-4.29 6.308-4.29 11.607 0 12.868 11.102 20.942 23.718 20.942 15.643 0 26.24-11.102 26.24-26.746 0-20.437-15.391-30.025-34.062-30.025-11.606 0-26.997 2.776-38.856 24.222l2.271-22.203-69.386 2.27v22.456h7.821c6.308 0 10.597 0 10.597 9.588v71.152c0 3.533-2.27 4.29-4.289 4.29h-14.129ZM347.043 114.888c0 48.191 31.539 69.133 75.946 69.133 31.035 0 68.629-12.615 70.9-49.201h-26.24c-4.794 17.662-14.13 23.465-32.549 23.465-24.726 0-33.053-13.625-33.053-37.342h93.356c0-47.435-24.727-75.441-73.423-75.441-43.398 0-74.937 24.726-74.937 69.386Zm74.937-45.67c15.896 0 18.419 17.158 18.419 29.27h-37.847c0-12.112 5.046-29.27 19.428-29.27ZM511.145 114.888c0 48.191 31.539 69.133 75.946 69.133 31.035 0 68.629-12.615 70.9-49.201h-26.24c-4.794 17.662-14.13 23.465-32.549 23.465-24.727 0-33.053-13.625-33.053-37.342h93.356c0-47.435-24.727-75.441-73.423-75.441-43.398 0-74.937 24.726-74.937 69.386Zm74.937-45.67c15.896 0 18.419 17.158 18.419 29.27h-37.847c0-12.112 5.046-29.27 19.428-29.27ZM670.958 221.111v22.456h90.328v-22.456H745.39c-4.542 0-5.046-4.794-5.046-9.588v-34.062l-2.524-11.859c11.607 17.158 27.25 18.672 36.838 18.672 40.37 0 60.303-30.53 60.303-68.125 0-36.585-14.887-70.9-56.014-70.9-15.643 0-31.286 5.803-40.874 18.671l2.018-15.895-69.638 2.27v21.7h13.625c2.775 0 5.298 2.522 5.298 5.298v134.483c0 9.083-2.775 9.335-5.046 9.335h-13.372Zm88.561-61.059c-20.185 0-20.185-30.53-20.185-46.174 0-18.923 2.019-44.407 21.195-44.407 15.895 0 19.428 10.597 19.428 43.903 0 33.053-4.037 46.678-20.438 46.678ZM840.549 213.29c0 22.455 20.942 32.043 40.875 32.043 20.942 0 40.118-9.588 48.696-29.268C988.405 82.087 987.9 72.751 997.488 72.751h11.352v-21.95h-66.609v21.95h14.887c5.551 0 6.055 1.514 6.055 4.29 0 2.523-3.28 10.85-22.708 55.004l-2.523 11.606-2.271-11.858c-16.4-38.1-22.203-51.725-22.203-54.752 0-4.037 2.018-4.29 11.606-4.29h7.065v-21.95h-90.58v21.95l6.055-.252c5.551 0 11.102 1.01 13.877 6.56 50.21 116.821 50.463 117.073 50.463 117.326-5.803 18.671-14.634 28.259-27.25 28.259-3.28 0-5.299-1.01-6.308-2.019 6.813-3.532 10.345-7.822 10.345-15.643 0-12.616-9.336-19.428-21.447-19.428-15.895 0-26.745 8.831-26.745 25.736ZM.365 296.979c0 55.004 40.37 91.589 94.113 91.589 44.407 0 85.534-26.24 85.534-75.946h-27.25c-2.271 31.034-18.923 46.173-47.939 46.173-36.586 0-44.912-29.52-44.912-61.312 0-31.034 6.308-66.106 43.65-66.106 30.53 0 40.875 17.158 47.183 43.903h26.24v-69.134h-24.222l-5.803 12.111c-14.634-10.093-33.305-14.634-50.715-14.634-55.004 0-95.879 37.847-95.879 93.356ZM195.232 360.814v22.456h101.682v-22.456h-26.746c-2.523 0-4.793-1.514-4.793-5.299v-48.949c0-17.914 13.12-33.305 24.222-33.305-2.524 3.28-4.29 6.308-4.29 11.607 0 12.868 11.102 20.942 23.718 20.942 15.643 0 26.24-11.102 26.24-26.746 0-20.437-15.391-30.025-34.062-30.025-11.606 0-26.997 2.776-38.856 24.222l2.271-22.203-69.386 2.27v22.456h7.821c6.308 0 10.597 0 10.597 9.588v71.152c0 3.533-2.27 4.29-4.289 4.29h-14.129ZM380.63 302.782c11.102 0 23.97-5.299 23.97-17.914 0-7.57-3.532-11.102-9.84-14.13 2.018-2.018 6.56-5.551 17.157-5.551 7.569 0 16.148 2.776 16.905 14.382v20.942c-13.12 1.514-24.979 4.289-36.585 7.822-22.204 6.812-44.66 16.148-44.66 42.388 0 24.727 20.942 35.829 42.893 35.829 16.653 0 33.558-6.308 42.641-22.709 3.28 20.438 16.401 22.709 28.512 22.709 26.24 0 32.043-4.794 38.099-7.57v-25.736c-3.785 1.767-8.074 3.28-11.606 3.28-5.804 0-8.074-2.523-8.074-8.578v-60.051c0-33.557-35.829-39.613-61.565-39.613-21.194 0-63.583 2.523-63.583 32.801 0 14.129 12.616 21.699 25.736 21.699Zm19.933 41.379c0-15.896 15.139-22.203 28.259-24.222v19.428c0 8.831-8.326 17.157-17.41 17.157-7.064 0-10.849-5.803-10.849-12.363ZM509.32 424.144V446.6h90.328v-22.456h-15.896c-4.542 0-5.046-4.794-5.046-9.588v-34.062l-2.523-11.859c11.606 17.158 27.249 18.672 36.837 18.672 40.37 0 60.303-30.53 60.303-68.125 0-36.585-14.886-70.9-56.013-70.9-15.644 0-31.287 5.803-40.875 18.671l2.018-15.895-69.638 2.27v21.699h13.625c2.775 0 5.298 2.524 5.298 5.299v134.483c0 9.083-2.775 9.335-5.046 9.335H509.32Zm88.561-61.059c-20.185 0-20.185-30.53-20.185-46.174 0-18.923 2.019-44.407 21.195-44.407 15.895 0 19.428 10.597 19.428 43.903 0 33.053-4.037 46.678-20.438 46.678ZM686.481 424.144V446.6h90.328v-22.456h-15.896c-4.542 0-5.046-4.794-5.046-9.588v-34.062l-2.523-11.859c11.606 17.158 27.249 18.672 36.837 18.672 40.37 0 60.303-30.53 60.303-68.125 0-36.585-14.886-70.9-56.013-70.9-15.644 0-31.287 5.803-40.875 18.671l2.018-15.895-69.638 2.27v21.699h13.625c2.775 0 5.299 2.524 5.299 5.299v134.483c0 9.083-2.776 9.335-5.047 9.335h-13.372Zm88.562-61.059c-20.185 0-20.185-30.53-20.185-46.174 0-18.923 2.018-44.407 21.194-44.407 15.896 0 19.428 10.597 19.428 43.903 0 33.053-4.037 46.678-20.437 46.678ZM856.072 416.323c0 22.455 20.942 32.043 40.875 32.043 20.942 0 40.118-9.588 48.696-29.268 58.287-133.978 57.777-143.314 67.367-143.314h11.36v-21.951h-66.615v21.951h14.886c5.551 0 6.055 1.514 6.055 4.29 0 2.523-3.28 10.849-22.708 55.004l-2.523 11.606-2.271-11.858c-16.4-38.1-22.203-51.725-22.203-54.752 0-4.037 2.018-4.29 11.606-4.29h7.065v-21.951h-90.58v21.951l6.055-.252c5.551 0 11.102 1.009 13.877 6.56 50.211 116.821 50.463 117.073 50.463 117.326-5.803 18.671-14.634 28.259-27.25 28.259-3.28 0-5.298-1.01-6.308-2.019 6.813-3.532 10.345-7.822 10.345-15.643 0-12.616-9.335-19.428-21.446-19.428-15.896 0-26.746 8.831-26.746 25.736ZM151.501 410.188h-24.222l-5.804 10.345h-.504c-16.148-8.326-32.044-12.868-50.21-12.868-35.577 0-70.143 18.167-70.143 57.023 0 24.979 15.138 43.145 39.108 49.201l63.583 15.895c7.822 2.019 15.139 5.804 15.139 14.382 0 16.401-20.438 20.185-32.801 20.185-26.493 0-52.986-13.877-57.275-43.145H2.636v67.62h24.222c.505 0 1.01-1.514 6.056-13.121 16.905 11.355 37.342 15.139 57.275 15.139 35.828 0 70.9-19.428 70.9-58.536 0-30.53-18.419-44.66-46.174-51.472l-59.798-14.634c-6.308-1.514-10.345-6.056-10.345-13.121 0-15.138 17.662-18.923 30.278-18.923 19.68 0 38.856 8.831 47.182 28.007 1.01 2.018 3.785 13.372 4.29 13.372h24.979v-65.349ZM269.609 563.847v22.456h83.515v-22.456h-13.372c-4.542 0-5.047-5.047-5.047-9.588v-68.377c0-25.231-25.231-34.567-46.173-34.567-19.933 0-36.838 5.803-46.173 24.222l2.018-13.877v-67.62l-70.395 4.794v22.204h14.382c3.028 0 5.046 1.514 5.046 6.307v127.166c0 9.083-2.775 9.336-4.794 9.336h-12.868v22.456h84.02v-22.456h-9.84c-4.541 0-5.046-5.047-5.046-9.588V502.03c0-12.868 9.336-21.447 22.708-21.447 8.831 0 16.148 5.299 16.148 15.139v58.789c0 9.083-2.775 9.336-4.794 9.336h-9.335ZM514.382 520.954c0-45.417-30.278-69.386-72.919-69.386-44.911 0-75.946 22.708-75.946 69.386 0 47.939 34.315 69.133 73.171 69.133 43.145 0 75.694-23.212 75.694-69.133Zm-94.113.252c0-26.493 3.532-45.921 20.185-45.921 15.896 0 18.924 19.176 18.924 45.921s-3.028 45.164-19.176 45.164c-16.401 0-19.933-18.671-19.933-45.164ZM644.638 531.803c12.111 36.333 18.167 54.5 18.419 54.5h49.958l33.053-98.402c.757-2.776 2.523-9.084 11.606-9.084h8.831v-21.951h-62.826v21.951h12.868c4.29 0 5.047 2.019 5.047 4.794 0 1.514-5.047 18.167-19.428 61.312l-2.271 11.102-2.019-11.102c-15.895-51.472-18.671-60.555-18.671-62.321 0-1.514.757-3.785 3.532-3.785h11.607v-21.951h-79.731v21.951h10.092c5.299 0 6.813 1.514 6.813 3.785 0 3.532-1.766 8.579-19.176 62.321l-1.766 10.85-2.019-10.85c-16.4-54.247-18.166-61.312-18.166-61.564 0-3.28 2.018-4.542 3.28-4.542h10.597v-21.951h-83.011v21.951h8.074c9.84 0 10.85 5.299 11.859 7.822l31.791 99.664h50.968l17.914-54.5 1.261-8.326 1.514 8.326Z"/></svg>